# xmcd
#
# Track frame offsets:
#	150
#	11350
#	24115
#	38867
#	51035
#	66255
#	82210
#	100760
#	112397
#	127190
#	139242
#	151840
#
# Disc length: 2153 seconds
#
# Revision: 0
# Processed by: cddbd v1.5.1PL0 Copyright (c) Steve Scherf et al.
# Submitted via: audiograbber 1.83.01
#
DISCID=a008670c
DTITLE=Tina Turner - Soul deep
DYEAR=1967
DGENRE=Country
TTITLE0=Soul deep
TTITLE1=Freedom to stay
TTITLE2=Good hearted woman
TTITLE3=If it's alright with you
TTITLE4=If this is our last time
TTITLE5=Lay it down
TTITLE6=Lovin' him was easier
TTITLE7=Stand by your man
TTITLE8=We had it all
TTITLE9=You ain't woman enough to take my man
TTITLE10=It's all over
TTITLE11=Pain
EXTD=
EXTT0=
EXTT1=
EXTT2=
EXTT3=
EXTT4=
EXTT5=
EXTT6=
EXTT7=
EXTT8=
EXTT9=
EXTT10=
EXTT11=
PLAYORDER=
